<svg width="256" height="256" viewBox="0 0 256 256" fill="none" xmlns="http://www.w3.org/2000/svg">
  <defs>
    <linearGradient id="bg" x1="40" y1="32" x2="216" y2="224" gradientUnits="userSpaceOnUse">
      <stop stop-color="#F4FFFD"/>
      <stop offset="1" stop-color="#DDEFF4"/>
    </linearGradient>
    <linearGradient id="teal" x1="60" y1="52" x2="196" y2="196" gradientUnits="userSpaceOnUse">
      <stop stop-color="#18AAA4"/>
      <stop offset="1" stop-color="#0E6F74"/>
    </linearGradient>
    <linearGradient id="coral" x1="114" y1="86" x2="164" y2="148" gradientUnits="userSpaceOnUse">
      <stop stop-color="#FF9D7D"/>
      <stop offset="1" stop-color="#F06F5A"/>
    </linearGradient>
    <filter id="shadow" x="24" y="24" width="208" height="208" filterUnits="userSpaceOnUse" color-interpolation-filters="sRGB">
      <feFlood flood-opacity="0" result="BackgroundImageFix"/>
      <feColorMatrix in="SourceAlpha" type="matrix" values="0 0 0 0 0 0 0 0 0 0 0 0 0 0 0 0 0 0 127 0" result="hardAlpha"/>
      <feOffset dy="12"/>
      <feGaussianBlur stdDeviation="12"/>
      <feColorMatrix type="matrix" values="0 0 0 0 0.0745 0 0 0 0 0.2235 0 0 0 0 0.2588 0 0 0 0.16 0"/>
      <feBlend mode="normal" in2="BackgroundImageFix" result="effect1_dropShadow_1_2"/>
      <feBlend mode="normal" in="SourceGraphic" in2="effect1_dropShadow_1_2" result="shape"/>
    </filter>
  </defs>

  <g filter="url(#shadow)">
    <rect x="40" y="32" width="176" height="176" rx="44" fill="url(#bg)"/>
    <rect x="40.75" y="32.75" width="174.5" height="174.5" rx="43.25" stroke="#D7EAEE" stroke-width="1.5"/>
  </g>

  <circle cx="128" cy="120" r="48" fill="url(#teal)" opacity="0.12"/>
  <circle cx="128" cy="120" r="39" stroke="url(#teal)" stroke-width="8"/>
  <circle cx="145" cy="104" r="18" fill="url(#coral)"/>

  <path d="M105 110C105 92.3269 119.327 78 137 78" stroke="url(#teal)" stroke-width="8" stroke-linecap="round"/>
  <path d="M119 148C104.088 144.738 93 131.459 93 115.5C93 97.0736 107.774 82 126 82" stroke="url(#teal)" stroke-width="8" stroke-linecap="round"/>

  <rect x="70" y="170" width="116" height="10" rx="5" fill="#18AAA4" opacity="0.18"/>
  <rect x="112" y="62" width="32" height="10" rx="5" fill="#0E6F74"/>
  <rect x="123" y="51" width="10" height="32" rx="5" fill="#0E6F74"/>
</svg>
